{
	"patcher" : 	{
		"fileversion" : 1,
		"appversion" : 		{
			"major" : 7,
			"minor" : 2,
			"revision" : 3,
			"architecture" : "x64",
			"modernui" : 1
		}
,
		"rect" : [ 34.0, 78.0, 966.0, 719.0 ],
		"editing_bgcolor" : [ 0.9, 0.9, 0.9, 1.0 ],
		"bglocked" : 0,
		"openinpresentation" : 0,
		"default_fontsize" : 12.0,
		"default_fontface" : 0,
		"default_fontname" : "Arial",
		"gridonopen" : 2,
		"gridsize" : [ 15.0, 15.0 ],
		"gridsnaponopen" : 2,
		"objectsnaponopen" : 1,
		"statusbarvisible" : 2,
		"toolbarvisible" : 1,
		"lefttoolbarpinned" : 0,
		"toptoolbarpinned" : 0,
		"righttoolbarpinned" : 0,
		"bottomtoolbarpinned" : 0,
		"toolbars_unpinned_last_save" : 0,
		"tallnewobj" : 0,
		"boxanimatetime" : 200,
		"enablehscroll" : 1,
		"enablevscroll" : 1,
		"devicewidth" : 0.0,
		"description" : "",
		"digest" : "",
		"tags" : "",
		"style" : "",
		"subpatcher_template" : "",
		"boxes" : [ 			{
				"box" : 				{
					"id" : "obj-7",
					"maxclass" : "newobj",
					"numinlets" : 0,
					"numoutlets" : 1,
					"outlettype" : [ "" ],
					"patching_rect" : [ 686.0, 45.0, 147.0, 22.0 ],
					"style" : "",
					"text" : "in 3 @comment Bit Depth"
				}

			}
, 			{
				"box" : 				{
					"code" : "History oneSampleDelayOne(0);\r\nHistory oneSampleDelayTwo(0);\r\n\r\n// 28/07 update: added a one-sample storages for performance optimization.\r\nHistory previousBitDepth(0);\r\nHistory previousOutputSamplingFrequency(0);\r\nHistory previousSAMPLERATE(0);\r\n\r\nHistory phaseIncrementValue(0);\r\nHistory quantizationRange(0);\r\n\r\n\r\ninputSignal = in1;\r\noutputSamplingFrequency = in2;\r\nbitDepth = in3;\r\n\r\n\r\n// PHASOR UNIT\r\n// ____________________\r\n// Manages the frequency with which the output data are updated.\r\n\r\nif (outputSamplingFrequency != previousOutputSamplingFrequency || SAMPLERATE != previousSAMPLERATE) {\r\n\tphaseIncrementValue = outputSamplingFrequency / SAMPLERATE;\r\n} else {\r\n\tphaseIncrementValue = phaseIncrementValue;\r\n}\r\n\r\npreviousPhaseValue = oneSampleDelayOne;\r\ncurrentPhaseValue = previousPhaseValue + phaseIncrementValue;\r\n\r\nconditionOne = 0;\r\nif (currentPhaseValue > 1) {\r\n\tconditionOne = currentPhaseValue - 1;\r\n} else {\r\n\tconditionOne = currentPhaseValue;\r\n}\r\n\r\ncurrentPhaseValueLimited = conditionOne;\r\n\r\nconditionTwo = 0;\r\nif (int(currentPhaseValue) > 0) {\r\n\tconditionTwo = 1;\r\n} else {\r\n\tconditionTwo = 0;\r\n}\r\n\r\nsamplingTrigger = conditionTwo;\r\n\r\n\r\n// DOWNSAMPLING UNIT\r\n// ____________________\r\n\r\nconditionThree = 0;\r\nif (samplingTrigger == 1) {\r\n\tconditionThree = inputSignal;\r\n} else {\r\n \tconditionThree = oneSampleDelayTwo;\r\n}\r\n\r\ndownsamplingOutput = conditionThree;\r\n\r\n\r\n// BIT REDUCTION UNIT\r\n// ____________________\r\n\r\nif (bitDepth != previousBitDepth) {\r\n\tquantizationRange = pow(2, bitDepth - 1);\r\n} else {\r\n\tquantizationRange = quantizationRange;\r\n}\r\n\r\noperationOne = downsamplingOutput * quantizationRange;\r\noperationTwo = int(operationOne);\r\noperationThree = operationTwo / quantizationRange;\r\n\r\nbitReductionOutput = operationThree;\r\n\r\n\r\nout1 = bitReductionOutput;\r\n\r\n\r\noneSampleDelayOne = currentPhaseValueLimited;\r\noneSampleDelayTwo = downsamplingOutput;\r\n\r\npreviousBitDepth = bitDepth;\r\npreviousOutputSamplingFrequency = outputSamplingFrequency;\r\npreviousSAMPLERATE = SAMPLERATE;\r\n\r\nphaseIncrementValue = phaseIncrementValue;\r\nquantizationRange = quantizationRange;",
					"fontface" : 0,
					"fontname" : "Arial",
					"fontsize" : 12.0,
					"id" : "obj-5",
					"maxclass" : "codebox",
					"numinlets" : 3,
					"numoutlets" : 1,
					"outlettype" : [ "" ],
					"patching_rect" : [ 45.0, 90.0, 660.0, 345.0 ],
					"style" : ""
				}

			}
, 			{
				"box" : 				{
					"id" : "obj-1",
					"maxclass" : "newobj",
					"numinlets" : 0,
					"numoutlets" : 1,
					"outlettype" : [ "" ],
					"patching_rect" : [ 366.0, 45.0, 177.0, 22.0 ],
					"style" : "",
					"text" : "in 2 @comment Sampling Rate"
				}

			}
, 			{
				"box" : 				{
					"id" : "obj-2",
					"maxclass" : "newobj",
					"numinlets" : 0,
					"numoutlets" : 1,
					"outlettype" : [ "" ],
					"patching_rect" : [ 45.0, 45.0, 161.0, 22.0 ],
					"style" : "",
					"text" : "in 1 @comment Input Signal"
				}

			}
, 			{
				"box" : 				{
					"id" : "obj-4",
					"maxclass" : "newobj",
					"numinlets" : 1,
					"numoutlets" : 0,
					"patching_rect" : [ 45.0, 465.0, 178.0, 22.0 ],
					"style" : "",
					"text" : "out 1 @comment Output Signal"
				}

			}
 ],
		"lines" : [ 			{
				"patchline" : 				{
					"destination" : [ "obj-5", 1 ],
					"disabled" : 0,
					"hidden" : 0,
					"source" : [ "obj-1", 0 ]
				}

			}
, 			{
				"patchline" : 				{
					"destination" : [ "obj-5", 0 ],
					"disabled" : 0,
					"hidden" : 0,
					"source" : [ "obj-2", 0 ]
				}

			}
, 			{
				"patchline" : 				{
					"destination" : [ "obj-4", 0 ],
					"disabled" : 0,
					"hidden" : 0,
					"source" : [ "obj-5", 0 ]
				}

			}
, 			{
				"patchline" : 				{
					"destination" : [ "obj-5", 2 ],
					"disabled" : 0,
					"hidden" : 0,
					"source" : [ "obj-7", 0 ]
				}

			}
 ]
	}

}
